<?xml version="1.0" ?><svg id="Layer_1" style="enable-background:new 0 0 64 64;" version="1.1" viewBox="0 0 64 64" xml:space="preserve" xmlns="http://www.w3.org/2000/svg" xmlns:xlink="http://www.w3.org/1999/xlink"><style type="text/css">
	.st0{fill:#23B180;}
	.st1{fill:none;stroke:#6081C4;stroke-width:1.858;stroke-linecap:round;stroke-linejoin:round;stroke-miterlimit:10;}
	.st2{fill:none;stroke:#23B180;stroke-linecap:round;stroke-linejoin:round;stroke-miterlimit:10;}
	.st3{opacity:0.15;}
	.st4{opacity:0.2;}
	.st5{fill:#FFFFFF;}
</style><circle class="st0" cx="32" cy="32" r="26.1"/><path class="st2" d="M52.1,12.7c4.8,5,7.8,11.8,7.8,19.3c0,15.4-12.5,27.9-27.9,27.9S4.1,47.4,4.1,32S16.6,4.1,32,4.1  c3.4,0,6.7,0.6,9.7,1.7"/><path class="st2" d="M45.5,7.6c1.2,0.6,2.3,1.4,3.3,2.2"/><circle class="st3" cx="32" cy="32" r="22.8"/><circle class="st3" cx="32" cy="32" r="17.5"/><g><g class="st4"><path d="M45.2,30.7C45,24,39.4,18.5,32.6,18.5c-6.8,0-12.3,5.3-12.6,12c0,0.2,0,0.4,0,0.6c0,2.4,0.7,4.6,1.8,6.5l-2.3,6.7l7-2.2    c1.8,1,3.9,1.6,6.1,1.6c7,0,12.6-5.6,12.6-12.5C45.2,30.9,45.2,30.8,45.2,30.7z M32.6,41.5c-2.2,0-4.2-0.6-5.8-1.7l-4.1,1.3    l1.3-3.9c-1.3-1.7-2-3.9-2-6.2c0-0.3,0-0.7,0.1-1c0.5-5.3,5-9.5,10.5-9.5c5.6,0,10.1,4.3,10.6,9.7c0,0.3,0,0.5,0,0.8    C43.2,36.8,38.4,41.5,32.6,41.5z"/><path d="M38.4,33.5c-0.3-0.2-1.8-0.9-2.1-1c-0.3-0.1-0.5-0.2-0.7,0.2c-0.2,0.3-0.8,1-1,1.2    c-0.2,0.2-0.4,0.2-0.7,0.1c-0.3-0.2-1.3-0.5-2.5-1.5c-0.9-0.8-1.5-1.8-1.7-2.1c-0.2-0.3,0-0.5,0.1-0.6c0.1-0.1,0.3-0.4,0.5-0.5    c0-0.1,0.1-0.1,0.1-0.1c0.1-0.1,0.1-0.2,0.2-0.4c0.1-0.2,0.1-0.4,0-0.5c-0.1-0.2-0.7-1.7-1-2.3c-0.3-0.6-0.5-0.5-0.7-0.5    c-0.2,0-0.4,0-0.6,0c-0.2,0-0.5,0.1-0.8,0.4c-0.3,0.3-1.1,1-1.1,2.6c0,0.4,0.1,0.7,0.2,1c0.3,1.1,1,2,1.1,2.1    c0.2,0.2,2.1,3.4,5.3,4.6c3.1,1.2,3.1,0.8,3.7,0.8c0.6-0.1,1.8-0.7,2.1-1.5C39,34.6,39,34,39,33.9C38.9,33.8,38.7,33.7,38.4,33.5z    " id="XMLID_48_"/></g><g><g><path class="st5" d="M44.8,30.4c-0.2-6.8-5.7-12.2-12.6-12.2c-6.8,0-12.3,5.3-12.6,12c0,0.2,0,0.4,0,0.6c0,2.4,0.7,4.6,1.8,6.5     l-2.3,6.7l7-2.2c1.8,1,3.9,1.6,6.1,1.6c7,0,12.6-5.6,12.6-12.5C44.8,30.6,44.8,30.5,44.8,30.4z M32.2,41.2     c-2.2,0-4.2-0.6-5.8-1.7l-4.1,1.3l1.3-3.9c-1.3-1.7-2-3.9-2-6.2c0-0.3,0-0.7,0.1-1c0.5-5.3,5-9.5,10.5-9.5     c5.6,0,10.1,4.3,10.6,9.7c0,0.3,0,0.5,0,0.8C42.8,36.5,38.1,41.2,32.2,41.2z"/><path class="st5" d="M38,33.2c-0.3-0.2-1.8-0.9-2.1-1c-0.3-0.1-0.5-0.2-0.7,0.2c-0.2,0.3-0.8,1-1,1.2     c-0.2,0.2-0.4,0.2-0.7,0.1c-0.3-0.2-1.3-0.5-2.5-1.5c-0.9-0.8-1.5-1.8-1.7-2.1c-0.2-0.3,0-0.5,0.1-0.6c0.1-0.1,0.3-0.4,0.5-0.5     c0-0.1,0.1-0.1,0.1-0.1c0.1-0.1,0.1-0.2,0.2-0.4c0.1-0.2,0.1-0.4,0-0.5c-0.1-0.2-0.7-1.7-1-2.3C29,24.9,28.8,25,28.6,25     c-0.2,0-0.4,0-0.6,0c-0.2,0-0.5,0.1-0.8,0.4c-0.3,0.3-1.1,1-1.1,2.6c0,0.4,0.1,0.7,0.2,1c0.3,1.1,1,2,1.1,2.1     c0.2,0.2,2.1,3.4,5.3,4.6c3.1,1.2,3.1,0.8,3.7,0.8c0.6-0.1,1.8-0.7,2.1-1.5c0.3-0.7,0.3-1.3,0.2-1.5C38.5,33.4,38.3,33.3,38,33.2     z" id="XMLID_39_"/></g></g></g></svg>